HIERARCHY
ROOT hip
{
  OFFSET 0 0 0
  CHANNELS 6 Xposition Yposition Zposition Zrotation Yrotation Xrotation
  JOINT abdomen
  {
    OFFSET 0 20.6881 -0.73152
    CHANNELS 3 Zrotation Xrotation Yrotation
    JOINT chest
    {
      OFFSET 0 11.7043 -0.48768
      CHANNELS 3 Zrotation Xrotation Yrotation
      JOINT neck
      {
        OFFSET 0 22.1894 -2.19456
        CHANNELS 3 Zrotation Xrotation Yrotation
        JOINT head
        {
          OFFSET -0.24384 7.07133 1.2192
          CHANNELS 3 Zrotation Xrotation Yrotation
          JOINT leftEye
          {
            OFFSET 4.14528 8.04674 8.04672
            CHANNELS 3 Zrotation Xrotation Yrotation
            End Site
            {
              OFFSET 1 0 0
            }
          }
          JOINT rightEye
          {
            OFFSET -3.6576 8.04674 8.04672
            CHANNELS 3 Zrotation Xrotation Yrotation
            End Site
            {
              OFFSET 1 0 0
            }
          }
        }
      }
      JOINT rCollar
      {
        OFFSET -2.68224 19.2634 -4.8768
        CHANNELS 3 Zrotation Xrotation Yrotation
        JOINT rShldr
        {
          OFFSET -8.77824 -1.95073 1.46304
          CHANNELS 3 Zrotation Xrotation Yrotation
          JOINT rForeArm
          {
            OFFSET -28.1742 -1.7115 0.48768
            CHANNELS 3 Zrotation Xrotation Yrotation
            JOINT rHand
            {
              OFFSET -22.5879 0.773209 7.07136
              CHANNELS 3 Zrotation Xrotation Yrotation
              JOINT rThumb1
              {
                OFFSET -1.2192 -0.487915 3.41376
                CHANNELS 3 Zrotation Xrotation Yrotation
                JOINT rThumb2
                {
                  OFFSET -3.37035 -0.52449 3.41376
                  CHANNELS 3 Zrotation Xrotation Yrotation
                  End Site
                  {
                    OFFSET -1.78271 -1.18214 1.43049
                  }
                }
              }
              JOINT rIndex1
              {
                OFFSET -7.75947 0.938293 5.60832
                CHANNELS 3 Zrotation Xrotation Yrotation
                JOINT rIndex2
                {
                  OFFSET -2.54057 -0.884171 1.56538
                  CHANNELS 3 Zrotation Xrotation Yrotation
                  End Site
                  {
                    OFFSET -1.62519 -0.234802 1.16502
                  }
                }
              }
              JOINT rMid1
              {
                OFFSET -8.24714 1.18213 3.41376
                CHANNELS 3 Zrotation Xrotation Yrotation
                JOINT rMid2
                {
                  OFFSET -3.10165 -0.590103 1.0647
                  CHANNELS 3 Zrotation Xrotation Yrotation
                  End Site
                  {
                    OFFSET -2.48547 -0.328903 0.83742
                  }
                }
              }
              JOINT rRing1
              {
                OFFSET -8.82822 0.546677 1.51678
                CHANNELS 3 Zrotation Xrotation Yrotation
                JOINT rRing2
                {
                  OFFSET -2.60934 -0.819778 -0.0198488
                  CHANNELS 3 Zrotation Xrotation Yrotation
                  End Site
                  {
                    OFFSET -2.33842 -0.294052 0.168128
                  }
                }
              }
              JOINT rPinky1
              {
                OFFSET -8.27202 -0.0477905 -0.4584
                CHANNELS 3 Zrotation Xrotation Yrotation
                JOINT rPinky2
                {
                  OFFSET -1.82734 -0.647385 -0.700984
                  CHANNELS 3 Zrotation Xrotation Yrotation
                  End Site
                  {
                    OFFSET -1.69225 -0.51767 -0.607171
                  }
                }
              }
            }
          }
        }
      }
      JOINT lCollar
      {
        OFFSET 2.68224 19.2634 -4.8768
        CHANNELS 3 Zrotation Xrotation Yrotation
        JOINT lShldr
        {
          OFFSET 8.77824 -1.95073 1.46304
          CHANNELS 3 Zrotation Xrotation Yrotation
          JOINT lForeArm
          {
            OFFSET 28.1742 -1.7115 0.48768
            CHANNELS 3 Zrotation Xrotation Yrotation
            JOINT lHand
            {
              OFFSET 22.5879 0.773209 7.07136
              CHANNELS 3 Zrotation Xrotation Yrotation
              JOINT lThumb1
              {
                OFFSET 1.2192 -0.487915 3.41376
                CHANNELS 3 Zrotation Xrotation Yrotation
                JOINT lThumb2
                {
                  OFFSET 3.37035 -0.52449 3.41376
                  CHANNELS 3 Zrotation Xrotation Yrotation
                  End Site
                  {
                    OFFSET 1.78271 -1.18214 1.43049
                  }
                }
              }
              JOINT lIndex1
              {
                OFFSET 7.75947 0.938293 5.60832
                CHANNELS 3 Zrotation Xrotation Yrotation
                JOINT lIndex2
                {
                  OFFSET 2.54057 -0.884171 1.56538
                  CHANNELS 3 Zrotation Xrotation Yrotation
                  End Site
                  {
                    OFFSET 1.62519 -0.234802 1.16502
                  }
                }
              }
              JOINT lMid1
              {
                OFFSET 8.24714 1.18213 3.41376
                CHANNELS 3 Zrotation Xrotation Yrotation
                JOINT lMid2
                {
                  OFFSET 3.10165 -0.590103 1.0647
                  CHANNELS 3 Zrotation Xrotation Yrotation
                  End Site
                  {
                    OFFSET 2.48547 -0.328903 0.83742
                  }
                }
              }
              JOINT lRing1
              {
                OFFSET 8.82822 0.546677 1.51678
                CHANNELS 3 Zrotation Xrotation Yrotation
                JOINT lRing2
                {
                  OFFSET 2.60934 -0.819778 -0.0198488
                  CHANNELS 3 Zrotation Xrotation Yrotation
                  End Site
                  {
                    OFFSET 2.33842 -0.294052 0.168128
                  }
                }
              }
              JOINT lPinky1
              {
                OFFSET 8.27202 -0.0477905 -0.4584
                CHANNELS 3 Zrotation Xrotation Yrotation
                JOINT lPinky2
                {
                  OFFSET 1.82734 -0.647385 -0.700984
                  CHANNELS 3 Zrotation Xrotation Yrotation
                  End Site
                  {
                    OFFSET 1.69225 -0.51767 -0.607171
                  }
                }
              }
            }
          }
        }
      }
    }
  }
  JOINT rButtock
  {
    OFFSET -8.77824 4.35084 1.2192
    CHANNELS 3 Zrotation Xrotation Yrotation
    JOINT rThigh
    {
      OFFSET 0 -1.70687 -2.19456
      CHANNELS 3 Zrotation Xrotation Yrotation
      JOINT rShin
      {
        OFFSET 0 -36.8199 0.73152
        CHANNELS 3 Zrotation Xrotation Yrotation
        JOINT rFoot
        {
          OFFSET 0.73152 -45.1104 -5.12064
          CHANNELS 3 Zrotation Xrotation Yrotation
          End Site
          {
            OFFSET -1.1221 -3.69964 12.103
          }
        }
      }
    }
  }
  JOINT lButtock
  {
    OFFSET 8.77824 4.35084 1.2192
    CHANNELS 3 Zrotation Xrotation Yrotation
    JOINT lThigh
    {
      OFFSET 0 -1.70687 -2.19456
      CHANNELS 3 Zrotation Xrotation Yrotation
      JOINT lShin
      {
        OFFSET 0 -36.8199 0.73152
        CHANNELS 3 Zrotation Xrotation Yrotation
        JOINT lFoot
        {
          OFFSET -0.73152 -45.1104 -5.12064
          CHANNELS 3 Zrotation Xrotation Yrotation
          End Site
          {
            OFFSET 1.1221 -3.69964 12.103
          }
        }
      }
    }
  }
}
MOTION
Frames:	9
Frame Time:	0.00833333
0.0 0.0 0.0 0.0 0.0 0.0 0.0 0.0 0.0 0.0 0.0 0.0 0.0 0.0 0.0 0.0 0.0 0.0 0.0 0.0 0.0 0.0 0.0 0.0 0.0 0.0 0.0 0.0 0.0 0.0 0.0 0.0 0.0 0.0 0.0 0.0 0.0 0.0 0.0 0.0 0.0 0.0 0.0 0.0 0.0 0.0 0.0 0.0 0.0 0.0 0.0 0.0 0.0 0.0 0.0 0.0 0.0 0.0 0.0 0.0 0.0 0.0 0.0 0.0 0.0 0.0 0.0 0.0 0.0 0.0 0.0 0.0 0.0 0.0 0.0 0.0 0.0 0.0 0.0 0.0 0.0 0.0 0.0 0.0 0.0 0.0 0.0 0.0 0.0 0.0 0.0 0.0 0.0 0.0 0.0 0.0 0.0 0.0 0.0 0.0 0.0 0.0 0.0 0.0 0.0 0.0 0.0 0.0 0.0 0.0 0.0 0.0 0.0 0.0 0.0 0.0 0.0 0.0 0.0 0.0 0.0 0.0 0.0 0.0 0.0 0.0 0.0 0.0 0.0 0.0 0.0 0.0
9.999999999999999e-05 62.185199999999995 0.059199999999999996 -2.554051 -88.625533 1.76537 -0.172593 3.364448 2.817029 9.5575 2.780781 -60.234571 -7.216857 -4.005357 -125.397321 27.647512 -26.685572 37.030748 53.626223 -3.289205 -6.502617 18.053055 -14.883977 -78.857809 -53.052553 -87.287714 -151.663133 -159.182133 27.550409 168.327356 -3.562003 74.216954 172.067137 -175.356828 51.816514 77.128 6.604053 -15.747749 43.443922 170.679653 10.100471 -89.737981 159.176746 32.358805 -123.377449 -17.50749 35.949208 -82.590854 -47.972836 -1.700677 -113.742946 138.222028 -55.489076 116.892388 92.42775 15.845425 -81.811995 5.281004 -30.757541 -9.379352 30.367012 11.403578 -66.587448 -11.088425 -31.06911 -13.133979 82.695305 -43.19793 -168.574963 169.960024 -40.552758 -171.082634 0.961909 51.521873 -168.922567 -175.624397 22.96018 -110.835045 -13.431301 -25.912338 -13.818745 -163.820976 -63.247589 -103.566981 151.514097 7.029365 -87.692551 82.504087 43.465088 -69.91934 -9.979511 -18.99395 -33.023966 94.577824 77.079228 -60.279414 -94.493275 -11.972359 79.333601 157.619776 -51.836248 -173.267209 46.960819 41.424144 99.055098 156.736199 44.89455 148.393474 17.626258 -47.789202 20.597804 -3.469693 51.815022 -5.012874 -0.91806 -7.410794 -2.48169 68.975174 -22.214904 -99.487239 -2.385045 -50.191681 -2.023921 2.679954 51.91977 -1.847148 5.504382 -1.970842 69.566158 -3.771439 -68.246411 171.983815
0.1585 63.665000000000006 0.9638000000000001 1.972923 14.798446 3.526056 -5.082783 8.031242 -105.956149 4.366427 2.044774 108.420982 -9.834709 20.200774 -46.524562 29.488302 -10.723852 13.424439 9.975043 0.092978 1.065384 -2.226686 -0.101358 5.211929 -0.422754 -2.810858 -5.855838 -95.670197 14.522123 120.658712 6.206472 14.284411 -98.8112 162.797477 -25.898794 142.645452 -152.273766 15.295614 95.240798 32.565546 -49.752216 23.711753 175.848043 -71.944521 141.123867 -137.890321 78.326149 125.878476 6.109389 2.869574 5.21548 -24.040734 -33.083275 -47.426141 -0.392877 7.857701 1.19616 -0.044974 -9.533289 -3.72631 -22.202049 -32.737219 -22.349398 45.272115 75.643074 -10.239498 96.962474 61.157385 -98.135061 -73.357108 -22.005388 -104.756338 -172.847155 -1.550522 -76.708003 178.851779 6.638843 -138.071215 3.495807 -8.37124 9.212614 123.159152 -17.644184 -109.387549 22.378211 18.870199 -1.214026 161.246042 -33.618822 -108.404199 12.017359 15.745878 -9.901202 6.190718 6.150019 3.561727 4.366327 -59.981863 3.702675 14.154194 -64.193803 36.975834 11.531108 -31.385537 -2.607647 157.410755 32.506316 146.157052 -135.183646 61.859089 -43.085998 144.581269 0.649405 88.611047 66.280804 -2.207296 -92.267789 -107.190289 -22.369147 27.132102 -157.864348 72.982851 -10.76765 170.757335 60.717958 -167.581493 6.268782 -62.999551 -121.153674 -81.714072 -0.931582 -21.074642
0.48650000000000004 60.8885 1.4423 2.932241 25.036068 6.815869 -2.480459 7.027719 -107.109961 7.15306 3.96207 106.202995 7.494087 26.637062 101.480801 -32.327151 18.264086 -136.71975 16.103871 3.613189 25.138452 -19.061058 1.606906 -9.549621 -158.124339 0.175332 164.913483 -69.527169 -31.216986 -63.841312 -7.734545 27.988029 -106.056512 177.548882 -17.485477 139.717584 -0.907085 -0.125456 1.123497 -132.073252 -36.241737 166.972638 -151.92766 -3.60652 130.539477 -4.39576 -31.416163 1.92815 -39.678588 56.56553 39.977643 -146.21098 -74.022151 174.73236 -71.988078 -50.792944 -59.950738 117.141296 54.329476 -70.349251 -45.683979 -47.239656 -14.90325 -121.825991 -5.120492 -115.963477 135.668963 39.258578 -140.388885 90.341922 28.332118 -25.470241 -147.801654 2.228128 127.690172 10.481251 52.027527 11.55611 158.183284 16.430624 -91.273499 -24.254223 -53.330531 -9.916982 38.485092 23.983938 0.505566 165.697251 -12.052037 -71.174357 95.202043 60.998658 -80.662344 155.194493 17.647616 -126.227112 -21.263041 -71.013186 -13.634763 5.817016 -62.88561 9.68806 79.33798 52.715014 -98.790698 117.017997 45.202764 179.946145 120.258812 47.365237 38.952601 -165.918893 -9.116659 89.849755 73.999568 -21.351287 10.299609 -101.950056 -40.239116 166.031318 -0.527597 3.701487 -7.723113 14.498017 -20.54145 14.057641 -32.823042 71.769024 131.150835 -98.158372 47.209466 -12.598491
0.1033 64.7732 2.3291 3.803804 34.007583 6.591263 -3.005336 13.836026 21.241054 -4.09133 -10.632334 -20.325601 13.033264 18.309114 106.392088 -27.905893 25.07305 -137.737404 21.735878 -3.658621 -18.889862 -16.50696 0.889285 -6.124954 -46.866035 73.976653 49.554208 120.664991 -6.989003 147.350749 22.171385 34.074607 87.448913 -9.9876 2.867767 1.339055 -11.447815 20.297912 -3.884492 -34.462616 -24.253123 -6.990522 -153.746333 47.472517 110.335732 -166.673793 1.106681 40.74215 -153.20358 25.781159 136.833578 -73.571923 58.031275 94.922248 152.215904 3.606827 -168.675008 143.167254 -13.792955 179.494987 159.643941 72.240476 -169.188152 -34.538983 -53.226401 49.538273 156.842707 -23.883461 -157.67947 64.067073 5.400358 56.12268 -30.364842 46.163309 98.79806 -167.311118 -2.769589 -145.404843 -169.14858 -24.545695 -100.506976 68.51572 33.2221 -43.467167 23.704284 3.530304 15.998947 -41.96756 33.501236 33.480919 152.400964 32.703078 -151.152014 17.848012 62.413936 18.862154 129.203565 25.379052 -143.975713 0.741212 49.820752 -50.592884 95.11067 -61.651128 89.230306 -13.6678 10.458637 4.8608 -65.01526 62.406587 -58.360346 124.549815 -18.511761 176.752641 63.11564 -33.014971 -91.14738 -131.523963 7.163771 42.581705 -2.073267 -5.165585 -0.035642 18.207438 -15.772821 -100.954416 -66.752064 -30.0663 98.903996 -166.572891 -15.060061 -38.187818
-0.1052 65.61580000000001 2.6812 6.396727 33.850279 6.3031 -4.358199 15.562165 -130.03796 9.778181 7.28418 137.690417 22.096741 20.722655 79.356006 -37.689521 17.324475 -106.1762 23.131892 -3.880471 -18.798179 0.504799 0.05969 13.487089 -111.337639 -72.467613 -130.248294 -78.180601 -30.80626 -149.303752 126.679535 -36.075683 -105.949909 -16.223989 37.016247 5.76115 -157.881829 11.118912 85.725791 -123.608668 -4.923538 74.131468 -55.451895 6.737444 3.486568 -110.585934 -78.667885 113.669268 -46.401677 40.773557 24.682148 76.906482 52.489811 -64.699602 -45.060354 3.592589 4.039349 -118.210043 -11.629212 -173.05725 -160.491312 -51.10136 -95.697886 20.181089 31.746536 -81.887372 151.930552 -3.784236 -148.726567 85.626174 -12.908145 33.880878 66.638061 -23.500621 36.836605 -20.587488 -44.431585 -11.315615 115.011917 54.755332 -71.659132 75.314288 -16.047574 -8.656388 3.677287 14.311915 -9.754213 38.923285 -42.773069 106.266034 141.719912 14.296369 -145.629596 144.800093 -42.447468 161.878321 133.217561 41.184988 -145.228042 -16.783783 7.918136 -25.434792 -34.408436 33.908222 -7.833218 80.848605 71.560437 -86.573171 -21.357686 10.028681 -25.00191 32.235509 -70.126771 79.518074 66.952998 30.246245 -74.752005 116.894365 -51.033411 10.055283 -8.382891 -5.755462 -0.598118 23.393382 -16.378551 -104.980866 -72.106441 -28.39109 143.694075 -15.803479 -26.843615 -19.445743
-0.5426 64.872 2.5376 7.113217 36.564286 5.960076 -6.86952 24.087036 -5.832539 4.802381 -18.495899 14.562436 23.229591 18.339004 79.716953 -39.234758 22.395773 -99.684153 25.438196 -3.509666 -15.459827 8.076249 0.583703 8.254043 -11.45148 64.140753 7.24982 -26.795714 -41.874221 55.604627 17.475798 -63.287137 122.662901 -5.320806 0.423604 3.873849 173.382411 -17.966603 80.606819 19.070125 -52.667686 33.256045 131.961509 -56.193898 103.203834 151.727512 85.829268 155.153059 -11.31345 -48.951931 -12.737863 -158.448186 -65.596824 -157.956385 -47.849468 -34.8319 -23.581151 -55.459308 -60.374176 -90.569098 -165.021571 -0.387946 -130.998681 -13.052842 53.474552 -12.090053 -15.616949 -38.663091 -10.79188 -104.130826 11.777116 6.323918 -19.429694 56.351976 -39.831331 15.220051 42.718492 -2.243335 169.667163 7.282825 -91.527171 40.829917 -70.255565 25.55547 133.732298 -10.506575 -109.815204 -151.048476 -44.182359 -44.141527 -10.041368 -4.883777 0.876613 142.650132 -8.017896 -130.673442 -4.601305 -8.793358 -5.276574 118.872103 -75.792529 149.569126 1.639107 58.060999 -55.796354 144.001645 12.90293 129.597202 179.274246 60.909322 3.005099 158.635268 -11.048254 -176.934825 37.244349 -74.750904 133.889666 105.72315 33.993936 -20.008647 -3.71806 -2.988395 2.250552 20.731215 -21.199346 -135.148142 -62.894702 -54.862397 137.367128 134.123586 -8.182706 -5.042009
-0.9577 63.8847 2.0478 6.818233 38.561959 6.585281 -4.001595 23.116638 -13.730483 6.576291 -17.213954 16.224006 -1.525956 17.790887 -57.754841 28.395235 -25.489631 43.041071 20.680691 -3.359716 -18.262678 4.381061 -0.189666 -4.955433 -7.82963 29.056349 2.367354 54.53696 -20.689463 92.316962 171.353405 -1.391967 24.881493 -168.157851 17.986475 145.186503 -67.490457 30.150079 44.158619 64.199956 -60.795542 -11.769625 32.879047 -52.922048 11.024059 -162.535437 -78.654162 140.859828 -161.478439 45.785221 138.850529 13.80027 -8.380833 18.790436 -165.011524 -14.912791 -157.906888 -141.337001 -63.45366 -153.911006 -11.89424 -18.46871 -13.200416 -155.025905 83.378785 -140.279527 149.679335 13.381969 -148.890348 66.505469 57.429224 19.201673 177.640957 2.719723 118.821304 11.515039 33.538269 3.08716 170.208954 16.309908 -81.187374 1.337009 -74.196056 -22.046333 -143.88831 -52.575561 -69.877042 178.662909 -9.953443 -90.313742 31.647994 52.332379 -22.192005 28.564392 30.006074 -52.028604 139.242264 6.658466 -178.50763 -45.654612 75.279039 42.948215 100.739803 42.438794 -137.930973 82.029254 66.297944 -160.614299 154.8739 59.428758 3.112431 166.57865 -6.030106 149.015365 53.949759 -72.99558 10.903439 105.624263 40.228586 -174.302906 163.914761 74.474977 10.758596 -140.981803 41.542878 -136.081333 -85.930217 -33.368583 -54.274732 -133.572697 12.896273 -166.945574
-1.2077 63.4857 1.1159999999999999 5.965081 37.747807 6.640501 -3.475488 14.715852 -161.465755 0.322544 11.327078 159.041172 -9.041388 19.991107 -67.88321 37.734483 -17.273492 50.992166 5.974556 -0.759088 -14.468879 -5.222296 0.51038 -11.156079 -63.050389 63.329641 60.758676 121.77636 -19.025079 150.599857 164.009234 -32.214019 5.582478 -163.783775 24.498946 140.750861 -104.948207 25.183429 69.190498 -170.693119 -60.513614 80.497187 11.764552 -11.293349 2.540587 -2.921958 32.022141 -3.94203 -112.937938 69.465101 93.21848 -141.719083 21.010718 115.525529 -98.872633 -49.30041 -111.610124 -126.719204 33.564283 156.632254 13.497062 16.805057 -1.826114 -137.088206 -16.34236 -149.419339 150.187493 10.921139 -155.105292 -118.336017 -30.167449 162.958696 -172.733349 -16.404048 -65.120862 -176.330778 -10.713569 -135.620251 2.996713 -19.535358 -5.202112 113.635847 -67.396209 -149.78793 -48.386308 -31.210584 -22.785923 8.336114 0.350246 18.512924 168.05643 22.101811 -143.121738 98.049758 36.173206 -51.090046 154.065037 51.918005 -167.559079 171.60233 45.815483 -154.862185 50.948268 35.259523 -79.351541 112.906548 23.16624 135.312658 76.957696 53.408155 35.173564 -153.528395 -0.77575 90.243675 77.125457 -37.541265 134.942242 -11.451285 57.25755 107.253749 -177.362984 71.720782 -0.680369 -146.9057 43.702821 -54.731859 -63.075832 42.270971 76.449616 174.182523 -16.094799 -22.537077
